<svg width="32" height="33" viewBox="0 0 32 33" fill="none" xmlns="http://www.w3.org/2000/svg">
<path d="M32 16.5C32 25.3366 24.8366 32.5 16 32.5C7.16344 32.5 0 25.3366 0 16.5C0 7.66344 7.16344 0.5 16 0.5C24.8366 0.5 32 7.66344 32 16.5Z" fill="#9381FF"/>
<path d="M16 6.5C14.9958 6.5 14.1818 7.31403 14.1818 8.31818V14.6818H7.81818C6.81403 14.6818 6 15.4958 6 16.5C6 17.5042 6.81403 18.3182 7.81818 18.3182H14.1818V24.6818C14.1818 25.686 14.9958 26.5 16 26.5C17.0042 26.5 17.8182 25.686 17.8182 24.6818V18.3182H24.1818C25.186 18.3182 26 17.5042 26 16.5C26 15.4958 25.186 14.6818 24.1818 14.6818H17.8182V8.31818C17.8182 7.31403 17.0042 6.5 16 6.5Z" fill="#F8F7FF"/>
</svg>
