<svg width="16" height="17" viewBox="0 0 16 17" fill="none" xmlns="http://www.w3.org/2000/svg">
<path d="M0.560296 1.0603C-0.186765 1.80736 -0.186765 3.01858 0.560295 3.76564L5.29465 8.5L0.560296 13.2344C-0.186765 13.9814 -0.186764 15.1926 0.560296 15.9397C1.30736 16.6868 2.51858 16.6868 3.26564 15.9397L8 11.2053L12.7344 15.9397C13.4814 16.6868 14.6926 16.6868 15.4397 15.9397C16.1868 15.1926 16.1868 13.9814 15.4397 13.2344L10.7053 8.5L15.4397 3.76565C16.1868 3.01858 16.1868 1.80736 15.4397 1.0603C14.6926 0.313236 13.4814 0.313233 12.7344 1.06029L8 5.79465L3.26564 1.0603C2.51858 0.313235 1.30736 0.313236 0.560296 1.0603Z" fill="#F8F7FF"/>
</svg>
